<?xml version="1.0" standalone="no"?>
<!DOCTYPE svg PUBLIC "-//W3C//DTD SVG 20010904//EN"
 "http://www.w3.org/TR/2001/REC-SVG-20010904/DTD/svg10.dtd">
<svg version="1.0" xmlns="http://www.w3.org/2000/svg"
 width="1080.000000pt" height="1080.000000pt" viewBox="0 0 1080.000000 1080.000000"
 preserveAspectRatio="xMidYMid meet">

<g transform="translate(0.000000,1080.000000) scale(0.100000,-0.100000)"
fill="#000000" stroke="none">
<path d="M5400 9878 c0 -13 -9 -178 -20 -368 -11 -190 -20 -366 -20 -392 l0
-48 39 0 39 0 6 73 c3 39 8 117 11 172 4 55 8 101 9 102 2 2 96 -2 210 -8 224
-13 225 -12 226 38 0 20 -6 21 -117 28 -65 3 -163 9 -217 13 l-99 7 2 80 c2
44 6 118 9 164 l7 85 65 -3 c36 -1 137 -6 225 -11 88 -6 168 -10 178 -10 13 0
17 8 17 35 0 19 -1 35 -2 36 -12 2 -484 28 -520 29 -43 0 -48 -2 -48 -22z"/>
<path d="M4550 9610 c-64 -18 -160 -98 -160 -134 0 -8 -4 -17 -9 -21 -5 -3
-15 19 -22 48 l-12 54 -39 -10 c-29 -7 -37 -14 -33 -26 2 -9 36 -143 74 -299
37 -156 70 -285 73 -287 2 -3 20 0 40 5 l35 10 -34 143 c-57 238 -57 235 -43
295 15 66 65 121 128 140 43 13 48 22 34 68 -6 16 -12 19 -32 14z"/>
<path d="M6160 9613 c0 -4 -27 -135 -60 -291 -33 -156 -60 -292 -60 -302 0
-12 10 -19 33 -23 17 -3 35 -2 38 2 3 3 23 85 43 181 41 197 65 250 131 287
30 17 56 23 106 23 l67 0 6 32 c3 17 3 34 0 37 -8 9 -114 7 -146 -2 -15 -4
-43 -21 -63 -38 -39 -35 -43 -29 -26 44 5 20 6 39 2 41 -16 9 -71 17 -71 9z"/>
<path d="M6685 9423 c-100 -36 -167 -112 -200 -227 -68 -236 165 -453 410
-382 46 14 70 29 115 74 78 78 104 146 98 257 -5 90 -20 126 -79 190 -80 87
-236 126 -344 88z m183 -69 c105 -34 162 -112 162 -221 0 -124 -93 -242 -204
-258 -95 -15 -203 42 -249 129 -47 91 -14 235 71 306 70 60 133 72 220 44z"/>
<path d="M3815 9386 c-60 -19 -96 -40 -137 -81 -58 -59 -82 -117 -82 -205 0
-139 62 -243 179 -301 60 -29 70 -31 148 -27 65 3 97 10 139 31 65 32 121 83
148 137 l20 39 -29 16 c-38 19 -38 19 -45 -9 -9 -35 -99 -112 -153 -130 -69
-24 -130 -20 -191 10 -48 24 -102 77 -102 101 0 5 103 52 230 103 126 51 235
97 241 101 18 11 -25 92 -77 144 -75 74 -189 103 -289 71z m171 -75 c39 -18
119 -99 108 -110 -3 -3 -96 -42 -207 -87 -143 -59 -204 -79 -209 -71 -24 37 2
158 44 207 60 72 180 99 264 61z"/>
<path d="M7367 9148 c-144 -227 -288 -471 -284 -481 5 -13 55 -43 60 -36 2 2
47 74 100 159 99 161 120 187 174 214 93 47 255 -18 292 -117 27 -71 16 -103
-113 -312 -53 -85 -96 -159 -96 -165 0 -9 59 -45 65 -38 15 17 194 315 211
353 63 134 6 264 -146 333 -61 29 -158 35 -197 13 -29 -15 -29 -10 2 39 14 22
25 43 25 48 0 4 -13 16 -30 25 l-29 18 -34 -53z"/>
<path d="M4809 9119 c-27 -27 -21 -66 12 -92 24 -17 30 -18 55 -6 22 11 30 22
32 48 6 62 -55 94 -99 50z"/>
<path d="M3132 9039 c-99 -49 -171 -152 -172 -243 0 -15 -9 -7 -31 29 -18 28
-33 52 -35 53 -1 2 -17 -4 -34 -14 -19 -12 -28 -24 -25 -33 3 -9 108 -172 232
-363 239 -366 227 -353 276 -316 18 13 14 22 -68 147 -104 161 -106 165 -70
151 48 -18 136 -12 191 14 100 47 165 126 185 228 28 138 -75 314 -214 365
-18 6 -64 12 -103 12 -60 1 -80 -4 -132 -30z m225 -68 c71 -36 132 -120 147
-201 3 -20 0 -58 -7 -86 -39 -149 -212 -226 -340 -151 -80 47 -135 139 -136
230 -2 102 69 192 179 228 37 12 113 3 157 -20z"/>
<path d="M8157 8768 l-45 -52 -41 37 c-23 20 -43 37 -45 37 -2 0 -12 -12 -21
-27 l-18 -27 41 -35 40 -36 -130 -150 c-160 -184 -168 -196 -168 -261 0 -63
37 -120 103 -158 48 -29 97 -34 97 -12 0 8 2 21 6 29 3 10 -4 16 -26 21 -46 9
-100 66 -100 106 0 45 9 59 148 220 69 80 127 147 129 149 1 2 35 -24 73 -59
l71 -62 25 23 25 24 -72 65 -72 66 42 47 c22 27 41 52 41 56 0 4 -13 17 -29
29 l-30 22 -44 -52z"/>
<path d="M2560 8571 c-83 -27 -168 -99 -208 -176 -23 -42 -27 -63 -27 -135 0
-101 23 -159 92 -228 65 -65 131 -92 224 -92 65 0 85 5 137 30 148 75 218 240
166 394 -21 61 -102 150 -168 183 -54 28 -167 40 -216 24z m199 -109 c51 -31
106 -105 122 -165 32 -118 -70 -264 -199 -283 -96 -14 -212 52 -261 150 -28
58 -31 147 -6 197 69 136 216 180 344 101z"/>
<path d="M8324 8289 c-51 -15 -126 -70 -165 -123 -72 -96 -83 -213 -29 -322
53 -108 169 -194 262 -194 25 0 28 3 28 35 0 31 -3 35 -25 35 -62 0 -147 60
-191 136 -49 84 -40 207 19 262 l23 22 167 -195 c92 -107 171 -195 176 -195
17 0 93 92 113 137 27 61 27 165 0 226 -28 62 -93 131 -155 162 -41 20 -65 25
-121 24 -39 0 -85 -5 -102 -10z m184 -75 c129 -53 180 -202 111 -323 -37 -63
-12 -80 -199 138 -119 139 -129 155 -113 166 53 36 141 44 201 19z"/>
<path d="M1841 8227 c-11 -13 -21 -28 -21 -33 0 -9 676 -549 688 -549 2 0 15
14 28 30 l23 30 -336 265 c-184 146 -341 268 -348 272 -7 4 -21 -2 -34 -15z"/>
<path d="M8705 7630 c-143 -83 -264 -151 -269 -153 -10 -3 10 -64 24 -72 4 -3
79 36 166 85 88 50 177 95 198 101 86 23 167 -11 223 -94 60 -90 57 -166 -10
-233 -23 -22 -112 -80 -197 -128 -85 -48 -158 -91 -162 -95 -4 -3 2 -21 13
-40 l20 -33 42 25 c23 14 100 57 172 98 146 82 200 126 226 184 63 137 -40
329 -197 369 l-47 12 47 24 c25 14 46 29 46 33 0 9 -29 67 -33 66 -1 0 -119
-67 -262 -149z"/>
<path d="M1873 7739 c-141 -54 -222 -223 -178 -374 13 -48 28 -70 78 -120 99
-98 221 -130 343 -88 61 20 150 106 184 178 27 55 41 198 22 217 -5 5 -23 7
-39 4 -27 -6 -28 -8 -24 -58 11 -169 -136 -310 -291 -277 -26 6 -50 15 -53 20
-4 5 53 109 126 230 l131 222 -23 18 c-65 49 -188 62 -276 28z m163 -60 c24
-6 44 -14 44 -17 0 -11 -224 -382 -231 -382 -4 0 -23 18 -42 39 -35 39 -57 93
-57 141 0 68 49 155 107 191 62 39 107 46 179 28z"/>
<path d="M1510 7214 l-12 -36 206 -206 206 -207 -113 -6 c-61 -4 -192 -10
-290 -14 l-179 -7 -15 -35 c-8 -19 -12 -37 -9 -40 7 -7 670 27 677 35 4 4 11
23 18 42 l11 34 -237 238 c-131 131 -241 238 -245 238 -3 0 -12 -16 -18 -36z"/>
<path d="M9041 6981 c-58 -22 -68 -29 -124 -80 -57 -53 -80 -104 -85 -191 -7
-130 54 -243 158 -292 l50 -24 -55 -18 c-60 -19 -60 -19 -45 -63 l11 -30 417
137 c229 76 417 142 417 146 0 5 -4 23 -8 41 l-8 31 -177 -59 c-97 -32 -178
-59 -179 -59 -2 0 9 24 23 53 68 134 1 326 -141 400 -58 30 -182 34 -254 8z
m244 -96 c70 -44 110 -119 109 -205 -1 -76 -17 -112 -73 -163 -133 -120 -317
-91 -397 63 -12 23 -18 57 -19 100 0 54 5 73 28 113 70 118 239 162 352 92z"/>
<path d="M1417 6496 c-94 -26 -181 -113 -207 -204 -51 -183 62 -356 256 -391
161 -29 307 62 355 221 27 87 23 182 -10 246 -23 45 -36 50 -66 28 -19 -13
-19 -15 0 -57 31 -69 27 -169 -11 -239 -36 -69 -101 -115 -174 -125 -28 -4
-54 -4 -58 -1 -3 4 17 120 45 259 29 139 48 255 44 259 -14 15 -126 18 -174 4z
m103 -78 c0 -7 -19 -106 -41 -220 -26 -130 -46 -208 -54 -208 -23 0 -100 60
-124 96 -29 42 -39 128 -22 189 14 53 61 108 113 134 48 23 128 29 128 9z"/>
<path d="M1262 5790 c-152 -22 -276 -130 -323 -279 -18 -58 -20 -92 -19 -285
0 -121 1 -220 3 -221 1 0 188 1 415 3 l412 4 0 193 c0 216 -8 273 -49 362 -58
123 -164 201 -301 223 -36 5 -69 9 -75 9 -5 -1 -34 -5 -63 -9z m225 -113 c97
-50 161 -139 183 -257 5 -29 10 -112 10 -185 l0 -132 -157 -6 c-87 -4 -242 -7
-345 -7 l-188 0 0 163 c0 184 10 236 63 313 70 104 160 147 297 141 68 -3 95
-9 137 -30z"/>
<path d="M9057 5507 c-3 -23 -9 -123 -13 -222 -6 -155 -4 -188 10 -240 48
-164 154 -264 314 -295 228 -45 431 83 486 306 15 60 43 431 33 440 -4 5 -732
53 -803 54 -17 0 -22 -8 -27 -43z m374 -62 c140 -8 282 -17 317 -21 l62 -6 0
-61 c-1 -118 -19 -263 -39 -318 -97 -258 -459 -292 -607 -57 -45 70 -57 145
-49 302 3 78 9 149 11 159 6 21 -9 21 305 2z"/>
<path d="M9105 4643 c-134 -48 -215 -174 -215 -332 0 -61 27 -151 45 -151 5 0
45 19 53 25 1 1 -5 21 -13 45 -59 167 60 350 228 350 20 0 38 -3 41 -8 2 -4
-27 -119 -65 -256 -38 -137 -68 -250 -66 -253 2 -2 31 -8 64 -14 72 -13 165 6
226 47 104 69 155 230 111 357 -50 148 -258 244 -409 190z m291 -145 c46 -48
64 -90 64 -150 0 -96 -53 -178 -139 -214 -33 -14 -131 -20 -131 -8 0 7 107
399 115 422 6 18 50 -6 91 -50z"/>
<path d="M1407 4427 l-408 -132 5 -30 c4 -16 10 -33 15 -38 5 -5 76 13 162 41
85 27 164 53 176 56 22 7 22 6 -5 -41 -23 -40 -27 -60 -27 -123 0 -126 60
-224 175 -286 27 -14 56 -19 125 -19 77 0 98 4 146 26 188 88 243 292 127 465
-24 35 -49 57 -91 78 l-59 30 53 18 c29 10 54 19 56 21 7 8 -20 67 -30 67 -7
-1 -196 -60 -420 -133z m353 -47 c44 -22 85 -68 105 -117 20 -47 19 -146 -1
-189 -24 -51 -82 -102 -142 -124 -166 -62 -316 31 -329 205 -4 52 -1 67 24
115 63 120 223 171 343 110z"/>
<path d="M8695 3860 l-18 -39 59 -69 c33 -38 133 -155 224 -260 l165 -192 18
36 18 35 -178 207 c-98 114 -184 215 -192 225 -13 17 -3 17 235 12 137 -3 268
-8 291 -10 41 -4 44 -3 63 34 l19 39 -197 6 c-108 3 -263 8 -343 10 l-146 5
-18 -39z"/>
<path d="M1904 3782 c-209 -119 -228 -133 -259 -186 -49 -83 -41 -174 24 -275
37 -58 95 -100 158 -116 l46 -12 -47 -27 c-25 -15 -46 -29 -46 -32 0 -3 7 -18
15 -35 l16 -30 77 43 c43 24 166 92 274 153 l196 110 -19 37 -19 37 -152 -87
c-171 -96 -206 -111 -262 -112 -91 -1 -183 82 -207 186 -10 45 -9 56 9 96 25
56 48 74 245 184 86 48 157 93 157 99 0 5 -8 22 -18 37 l-17 26 -171 -96z"/>
<path d="M8535 3437 c-136 -56 -227 -181 -228 -313 0 -35 2 -66 5 -70 4 -3 20
-3 37 1 30 6 31 8 31 64 0 179 193 310 343 234 20 -10 26 -18 19 -26 -73 -94
-292 -421 -285 -427 4 -5 33 -21 63 -37 48 -24 66 -28 140 -28 98 0 145 19
209 86 63 64 85 121 86 214 0 67 -5 88 -27 130 -30 59 -97 124 -160 156 -52
27 -185 36 -233 16z m303 -173 c38 -46 56 -110 48 -167 -15 -99 -107 -186
-205 -194 -55 -5 -127 18 -125 40 2 17 235 356 246 357 3 0 20 -16 36 -36z"/>
<path d="M2366 3184 c-15 -38 -6 -49 53 -66 144 -43 227 -206 171 -335 -43
-101 -35 -105 -223 118 -93 109 -172 199 -177 199 -4 0 -24 -18 -45 -41 -117
-130 -115 -309 5 -429 61 -61 119 -85 210 -85 92 0 148 23 221 92 57 53 83 98
99 170 33 146 -82 333 -233 378 -64 19 -73 19 -81 -1z m-145 -203 c8 -11 71
-87 142 -170 l128 -150 -43 -22 c-97 -50 -213 -17 -282 79 -28 40 -31 51 -31
121 0 68 3 83 28 119 31 47 39 50 58 23z"/>
<path d="M8092 2957 c-12 -13 -22 -26 -22 -30 0 -3 129 -124 288 -268 158
-144 304 -278 325 -298 l38 -36 24 30 c13 17 23 33 22 36 -3 9 -641 589 -647
589 -4 0 -16 -10 -28 -23z"/>
<path d="M2810 2754 c-15 -37 -13 -41 21 -48 44 -8 99 -66 98 -102 -1 -47 -9
-59 -149 -219 l-134 -153 -59 51 c-86 76 -83 75 -109 49 l-23 -23 73 -66 72
-65 -46 -51 -46 -51 27 -23 c14 -13 30 -23 35 -23 5 0 26 20 47 45 20 25 41
45 45 45 4 0 26 -16 47 -35 l39 -36 22 28 22 28 -43 36 -42 36 135 154 c74 85
143 169 153 188 48 94 -22 216 -145 251 -28 8 -32 6 -40 -16z"/>
<path d="M7833 2679 c-70 -27 -146 -97 -180 -167 -24 -48 -28 -69 -27 -132 1
-92 25 -150 88 -218 70 -75 123 -97 231 -97 74 0 97 4 133 23 103 54 174 153
188 258 17 138 -96 305 -234 344 -57 16 -142 11 -199 -11z m207 -79 c42 -22
102 -83 124 -127 40 -79 29 -181 -26 -247 -98 -119 -251 -123 -360 -9 -101
104 -104 238 -7 335 76 76 178 95 269 48z"/>
<path d="M7266 2545 c-10 -8 -23 -16 -29 -18 -5 -1 25 -64 67 -139 101 -181
98 -170 39 -152 -126 39 -290 -39 -350 -166 -90 -195 50 -441 261 -457 74 -6
124 6 196 49 63 38 117 110 126 169 4 22 9 39 13 39 4 0 17 -20 31 -45 27 -50
37 -54 71 -27 l22 19 -196 354 c-108 195 -199 362 -203 372 -7 21 -23 21 -48
2z m88 -377 c60 -18 137 -99 159 -167 23 -72 21 -116 -7 -176 -71 -153 -266
-185 -383 -63 -75 78 -98 206 -52 289 57 102 173 149 283 117z"/>
<path d="M3104 2298 c-116 -187 -141 -247 -130 -321 22 -147 243 -270 369
-205 23 12 22 5 -9 -48 -15 -25 -25 -46 -23 -47 26 -18 61 -38 63 -35 29 42
326 522 326 527 0 7 -47 35 -62 36 -4 0 -48 -65 -98 -145 -50 -80 -103 -158
-118 -173 -73 -77 -177 -88 -270 -28 -66 42 -94 87 -94 150 0 57 13 84 132
272 49 79 90 146 90 149 0 6 -54 40 -63 40 -3 0 -54 -78 -113 -172z"/>
<path d="M3899 2027 c-107 -30 -179 -97 -220 -207 -27 -72 -23 -184 9 -247 78
-152 289 -222 438 -145 56 29 109 88 141 157 23 50 28 73 28 140 0 67 -5 88
-27 130 -70 132 -235 209 -369 172z m181 -88 c56 -25 86 -53 111 -101 60 -117
7 -283 -110 -345 -113 -60 -276 0 -325 119 -47 112 18 279 128 329 55 25 139
24 196 -2z"/>
<path d="M6509 1946 c-93 -36 -156 -83 -186 -140 -14 -28 -14 -30 8 -47 32
-25 34 -24 58 16 23 40 97 91 156 106 100 27 214 -15 262 -98 l24 -42 -248
-81 c-136 -45 -250 -83 -251 -85 -2 -2 9 -31 24 -65 50 -111 153 -180 270
-180 108 0 227 71 277 165 18 33 22 57 22 140 0 95 -2 103 -34 163 -34 63 -76
104 -141 137 -46 24 -190 31 -241 11z m347 -292 c4 -14 1 -51 -6 -82 -32 -145
-217 -220 -340 -138 -35 23 -71 67 -82 100 -3 8 378 143 409 145 7 1 16 -11
19 -25z"/>
<path d="M4655 1818 c-3 -13 -21 -94 -39 -180 -37 -169 -49 -200 -96 -246 -39
-40 -90 -56 -155 -49 l-53 5 -6 -36 c-3 -20 -4 -38 -2 -40 2 -2 33 -3 69 -3
68 0 112 15 156 55 l23 21 -7 -45 c-12 -73 -12 -73 25 -81 19 -4 35 -7 36 -6
8 11 130 604 126 608 -4 4 -21 10 -39 14 -28 6 -33 3 -38 -17z"/>
<path d="M6072 1833 c-30 -4 -33 -7 -28 -31 27 -133 57 -345 53 -377 -9 -89
-64 -152 -150 -176 -35 -9 -38 -13 -35 -42 4 -42 31 -46 95 -14 52 27 82 56
106 102 l15 30 7 -40 c13 -76 14 -78 48 -71 17 3 33 8 35 11 5 4 -83 557 -94
598 -3 9 -8 16 -12 15 -4 0 -22 -3 -40 -5z"/>
<path d="M5637 1762 c-37 -41 -11 -102 43 -102 36 0 60 23 60 59 0 54 -68 82
-103 43z"/>
<path d="M5326 1658 c-3 -57 -9 -136 -12 -177 l-7 -74 -81 6 c-44 4 -140 9
-212 13 l-132 7 -7 -32 c-4 -18 -5 -34 -3 -36 1 -2 95 -8 208 -15 113 -6 210
-13 215 -14 7 -2 7 -58 0 -167 l-10 -164 -75 3 c-41 2 -136 8 -210 13 -210 14
-200 15 -200 -26 0 -19 3 -35 8 -35 4 0 106 -7 227 -15 121 -8 245 -15 276
-15 l55 0 22 383 c13 210 25 397 28 415 l5 32 -44 0 -44 0 -7 -102z"/>
</g>
</svg>
